<svg width="25" height="36" viewBox="0 0 25 36" fill="none" xmlns="http://www.w3.org/2000/svg">
<path fill-rule="evenodd" clip-rule="evenodd" d="M18.8071 16.8048C20.2081 17.1034 21.8249 17.5901 23.1894 17.8618C24.3411 18.0946 24.285 18.1842 24.5904 16.8645C26.3249 9.51059 22.3909 2.12682 15.809 0.374179C10.6729 -0.990312 5.44159 1.47891 2.56113 6.12176C1.79059 7.36682 1.72054 7.2862 2.94221 7.74302C4.41045 8.2924 5.90672 8.79998 7.38617 9.33145C8.42319 7.98907 9.88079 7.09159 11.4901 6.80456C13.0994 6.51754 14.7518 6.86033 16.1425 7.7697C17.5332 8.67908 18.5684 10.0937 19.0571 11.7526C19.5458 13.4115 19.455 15.2027 18.8015 16.7958L18.8071 16.8048Z" fill="#ED6B06"/>
<path fill-rule="evenodd" clip-rule="evenodd" d="M7.0951 36L20.0344 24.2124H20.0516C21.5004 23.0777 22.704 21.6555 23.5883 20.0335C24.1634 18.9677 24.2296 19.0461 23.1772 18.6715C21.797 18.1836 20.0804 17.6841 18.6714 17.1933C17.847 18.6855 16.511 19.822 14.915 20.389C13.3189 20.9561 11.5727 20.9146 10.0049 20.2723C8.43698 19.6301 7.1555 18.4313 6.40146 16.9016C5.64742 15.3719 5.4728 13.6167 5.91044 11.966C6.08013 11.3228 6.34063 10.7076 6.68392 10.1394C5.26348 9.81122 3.80853 9.4366 2.43409 9.17524C0.832498 8.88483 0.864127 8.74543 0.421317 10.5082C-0.279607 13.2839 -0.102643 16.2116 0.927386 18.8806C1.61173 20.7827 1.57435 20.8408 3.39735 21.4942C5.07945 22.0925 7.06922 22.531 8.44078 23.286C7.07497 23.2483 5.12546 22.6559 3.46923 22.3422C1.60598 21.9879 2.11492 22.1912 2.72738 23.8959L7.0951 36Z" fill="#209041"/>
</svg>